# Blender 5.0.1
# www.blender.org
mtllib grass.mtl
o Plane
v 0.220000 0.800000 0.207846
v 0.113856 -0.000000 -0.008000
v 0.086144 0.000000 0.008000
v 0.172545 0.560000 0.093651
v 0.150677 0.400000 0.039775
v 0.134986 0.240000 0.004597
v 0.123466 0.120000 -0.007356
v 0.081896 0.120000 0.016644
v 0.086488 0.240000 0.032597
v 0.109108 0.400000 0.063775
v 0.144832 0.560000 0.109651
v 0.373553 0.900000 -0.306832
v 0.186211 -0.000000 -0.111570
v 0.213789 -0.000000 -0.088430
v 0.271090 0.630000 -0.212725
v 0.222549 0.450000 -0.168877
v 0.191398 0.270000 -0.138754
v 0.183194 0.135000 -0.121976
v 0.224561 0.135000 -0.087266
v 0.239659 0.270000 -0.098259
v 0.263915 0.450000 -0.134167
v 0.298668 0.630000 -0.189585
v -0.170000 0.560000 0.315692
v 0.083856 -0.000000 -0.092000
v 0.056144 -0.000000 -0.108000
v -0.027503 0.454657 0.100881
v 0.036508 0.351232 0.006009
v 0.076144 0.225266 -0.054642
v 0.086896 0.117585 -0.081265
v 0.045327 0.117585 -0.105265
v 0.027647 0.225266 -0.082642
v -0.005061 0.351232 -0.017991
v -0.055216 0.454657 0.084881
v 0.314170 0.560000 -0.491053
v 0.134965 -0.000000 -0.045472
v 0.165035 -0.000000 -0.034528
v 0.211139 0.454657 -0.254760
v 0.164574 0.351232 -0.150214
v 0.136073 0.225266 -0.083602
v 0.130107 0.117585 -0.055517
v 0.175213 0.117585 -0.039100
v 0.188695 0.225266 -0.064448
v 0.209680 0.351232 -0.133797
v 0.241210 0.454657 -0.243815
v 0.454299 0.700000 -0.599581
v 0.386424 -0.000000 -0.400360
v 0.413470 -0.000000 -0.393113
v 0.413006 0.490000 -0.499565
v 0.393201 0.350000 -0.452701
v 0.381145 0.210000 -0.421228
v 0.380877 0.105000 -0.406704
v 0.421445 0.105000 -0.395834
v 0.428475 0.210000 -0.408546
v 0.433770 0.350000 -0.441831
v 0.440052 0.490000 -0.492318
v -0.138023 0.560000 -0.300825
v 0.341545 -0.000000 -0.326720
v 0.338756 -0.000000 -0.358598
v 0.119673 0.454657 -0.307309
v 0.234103 0.351232 -0.309290
v 0.306520 0.225266 -0.311610
v 0.334494 0.117585 -0.318073
v 0.330311 0.117585 -0.365890
v 0.301639 0.225266 -0.367397
v 0.229919 0.351232 -0.357107
v 0.116884 0.454657 -0.339187
v 0.800532 0.560000 -0.366946
v 0.332746 -0.000000 -0.258167
v 0.341028 -0.000000 -0.227258
v 0.547877 0.454657 -0.315811
v 0.435529 0.351232 -0.293990
v 0.364615 0.225266 -0.279130
v 0.338188 0.117585 -0.267908
v 0.350611 0.117585 -0.221543
v 0.379109 0.225266 -0.225038
v 0.447952 0.351232 -0.247626
v 0.556159 0.454657 -0.284902
v 0.402681 0.900000 -0.439612
v 0.315413 -0.000000 -0.183471
v 0.350187 -0.000000 -0.174153
v 0.349590 0.630000 -0.311020
v 0.324128 0.450000 -0.250766
v 0.308626 0.270000 -0.210300
v 0.308281 0.135000 -0.191627
v 0.360441 0.135000 -0.177651
v 0.369479 0.270000 -0.193994
v 0.376288 0.450000 -0.236790
v 0.384363 0.630000 -0.301702
v 0.369286 0.800000 0.271979
v 0.364308 0.000000 0.031498
v 0.332430 0.000000 0.034287
v 0.374538 0.560000 0.148428
v 0.377488 0.400000 0.090358
v 0.378134 0.240000 0.051845
v 0.372745 0.120000 0.036142
v 0.324928 0.120000 0.040326
v 0.322347 0.240000 0.056725
v 0.329671 0.400000 0.094541
v 0.342660 0.560000 0.151217
v 0.725965 0.900000 -0.129583
v 0.473654 -0.000000 -0.031790
v 0.488869 0.000000 0.000837
v 0.593331 0.630000 -0.087596
v 0.530807 0.450000 -0.068371
v 0.489844 0.270000 -0.054235
v 0.475318 0.135000 -0.042496
v 0.498139 0.135000 0.006445
v 0.516469 0.270000 0.002863
v 0.553628 0.450000 -0.019430
v 0.608545 0.630000 -0.054969
v -0.029751 0.560000 0.204900
v 0.372619 -0.000000 -0.057310
v 0.354264 -0.000000 -0.083523
v 0.190178 0.454657 0.070436
v 0.288287 0.351232 0.011506
v 0.349841 0.225266 -0.026712
v 0.370837 0.117585 -0.046296
v 0.343305 0.117585 -0.085615
v 0.317721 0.225266 -0.072585
v 0.260755 0.351232 -0.027813
v 0.171823 0.454657 0.044223
v 0.750000 0.560000 -0.321640
v 0.399275 0.000000 0.006458
v 0.421903 0.000000 0.029085
v 0.556762 0.454657 -0.151029
v 0.470377 0.351232 -0.075957
v 0.416393 0.225266 -0.027631
v 0.399118 0.117585 -0.004699
v 0.433059 0.117585 0.029242
v 0.455991 0.225266 0.011967
v 0.504318 0.351232 -0.042016
v 0.579389 0.454657 -0.128401
v 0.369119 0.900000 -0.185646
v 0.421613 0.000000 0.079813
v 0.456386 0.000000 0.070496
v 0.387436 0.630000 -0.047736
v 0.395512 0.450000 0.017177
v 0.402320 0.270000 0.059972
v 0.411358 0.135000 0.076316
v 0.463518 0.135000 0.062340
v 0.463174 0.270000 0.043666
v 0.447672 0.450000 0.003201
v 0.422210 0.630000 -0.057053
v 0.150000 1.000000 -0.059808
v 0.282680 0.000000 0.210000
v 0.317321 0.000000 0.190000
v 0.209319 0.700000 0.082936
v 0.236654 0.500000 0.150282
v 0.256268 0.300000 0.194253
v 0.270668 0.150000 0.209196
v 0.322630 0.150000 0.179196
v 0.316889 0.300000 0.159253
v 0.288615 0.500000 0.120282
v 0.243960 0.700000 0.062936
v 0.143397 0.800000 0.544449
v 0.277254 0.000000 0.344602
v 0.249541 0.000000 0.328603
v 0.218566 0.560000 0.446253
v 0.254290 0.400000 0.400377
v 0.276909 0.240000 0.369200
v 0.281501 0.120000 0.353246
v 0.239932 0.120000 0.329246
v 0.228412 0.240000 0.341200
v 0.212721 0.400000 0.376377
v 0.190853 0.560000 0.430253
v 0.471106 0.700000 0.014626
v 0.386126 0.000000 0.207173
v 0.412438 0.000000 0.216750
v 0.421253 0.490000 0.110663
v 0.397440 0.350000 0.155623
v 0.382686 0.210000 0.185925
v 0.381153 0.105000 0.200370
v 0.420620 0.105000 0.214735
v 0.428731 0.210000 0.202684
v 0.436907 0.350000 0.169987
v 0.447565 0.490000 0.120239
v 0.665898 0.900000 0.420090
v 0.403126 0.000000 0.355479
v 0.396874 0.000000 0.390932
v 0.533168 0.630000 0.378409
v 0.470924 0.450000 0.358294
v 0.429261 0.270000 0.346379
v 0.410629 0.135000 0.347663
v 0.401252 0.135000 0.400842
v 0.418322 0.270000 0.408422
v 0.461547 0.450000 0.411474
v 0.526917 0.630000 0.413862
v -0.145000 0.560000 0.260622
v 0.335000 0.000000 0.276622
v 0.335000 0.000000 0.244622
v 0.112281 0.454657 0.276622
v 0.226448 0.351232 0.284622
v 0.298791 0.225266 0.288622
v 0.327223 0.117585 0.284622
v 0.327223 0.117585 0.236622
v 0.298791 0.225266 0.232622
v 0.226448 0.351232 0.236622
v 0.112281 0.454657 0.244622
v 0.795746 0.560000 0.276553
v 0.320260 0.000000 0.344147
v 0.325817 0.000000 0.375661
v 0.539596 0.454657 0.305472
v 0.425774 0.351232 0.317419
v 0.353835 0.225266 0.326042
v 0.326530 0.117585 0.334918
v 0.334865 0.117585 0.382189
v 0.363559 0.225266 0.381191
v 0.434109 0.351232 0.364689
v 0.545153 0.454657 0.336986
v 0.405743 0.900000 0.169488
v 0.296483 0.000000 0.417049
v 0.330312 0.000000 0.429361
v 0.341646 0.630000 0.292964
v 0.311029 0.450000 0.350769
v 0.292060 0.270000 0.389730
v 0.290089 0.135000 0.408302
v 0.340832 0.135000 0.426771
v 0.351260 0.270000 0.411277
v 0.361773 0.450000 0.369238
v 0.375475 0.630000 0.305277
v 0.000000 1.000000 -0.700000
v -0.020000 -0.000000 -0.400000
v 0.020000 -0.000000 -0.400000
v -0.020000 0.700000 -0.546720
v -0.030000 0.500000 -0.474730
v -0.035000 0.300000 -0.426843
v -0.030000 0.150000 -0.406702
v 0.030000 0.150000 -0.406702
v 0.035000 0.300000 -0.426843
v 0.030000 0.500000 -0.474730
v 0.020000 0.700000 -0.546720
v -0.307846 0.800000 -0.180000
v -0.092000 -0.000000 -0.286144
v -0.108000 -0.000000 -0.313856
v -0.193651 0.560000 -0.227455
v -0.139775 0.400000 -0.249323
v -0.104597 0.240000 -0.265014
v -0.092644 0.120000 -0.276534
v -0.116644 0.120000 -0.318104
v -0.132597 0.240000 -0.313512
v -0.163775 0.400000 -0.290892
v -0.209651 0.560000 -0.255168
v 0.240869 0.700000 -0.474985
v 0.071001 -0.000000 -0.350725
v 0.088999 -0.000000 -0.329275
v 0.149677 0.490000 -0.416742
v 0.106574 0.350000 -0.389712
v 0.078646 0.210000 -0.370846
v 0.070096 0.105000 -0.359103
v 0.097093 0.105000 -0.326929
v 0.110142 0.210000 -0.333310
v 0.133571 0.350000 -0.357538
v 0.167675 0.490000 -0.395292
v -0.415692 0.560000 -0.570000
v -0.008000 -0.000000 -0.316144
v 0.008000 -0.000000 -0.343856
v -0.200881 0.454657 -0.427503
v -0.106009 0.351232 -0.363492
v -0.045358 0.225266 -0.323856
v -0.018735 0.117585 -0.313104
v 0.005265 0.117585 -0.354673
v -0.017358 0.225266 -0.372353
v -0.082009 0.351232 -0.405061
v -0.184881 0.454657 -0.455216
v 0.391052 0.560000 -0.085830
v -0.054528 -0.000000 -0.265035
v -0.065472 -0.000000 -0.234965
v 0.154760 0.454657 -0.188861
v 0.050214 0.351232 -0.235426
v -0.016398 0.225266 -0.263927
v -0.044483 0.117585 -0.269893
v -0.060900 0.117585 -0.224787
v -0.035552 0.225266 -0.211305
v 0.033797 0.351232 -0.190320
v 0.143815 0.454657 -0.158790
v 0.295442 1.000000 0.147906
v -0.003473 0.000000 0.180304
v 0.003473 0.000000 0.219696
v 0.141018 0.700000 0.154826
v 0.068386 0.500000 0.157479
v 0.020357 0.300000 0.160871
v 0.001391 0.150000 0.169292
v 0.011810 0.150000 0.228380
v 0.032513 0.300000 0.229807
v 0.078805 0.500000 0.216567
v 0.147964 0.700000 0.194218
v -0.270115 0.800000 -0.064967
v -0.128102 0.000000 0.129169
v -0.103589 0.000000 0.108600
v -0.203550 0.560000 0.039253
v -0.172659 0.400000 0.088513
v -0.151098 0.240000 0.120432
v -0.137677 0.120000 0.130203
v -0.100907 0.120000 0.099350
v -0.108200 0.240000 0.084436
v -0.135889 0.400000 0.057660
v -0.179037 0.560000 0.018684
v 0.115673 0.700000 0.424189
v -0.036198 0.000000 0.278479
v -0.054196 0.000000 0.299928
v 0.042478 0.490000 0.344496
v 0.008375 0.350000 0.306742
v -0.015054 0.210000 0.282513
v -0.028104 0.105000 0.276132
v -0.055101 0.105000 0.308306
v -0.046551 0.210000 0.320050
v -0.018622 0.350000 0.338916
v 0.024480 0.490000 0.365945
v -0.241491 0.560000 0.639667
v -0.142383 0.000000 0.169737
v -0.173897 0.000000 0.164180
v -0.181058 0.454657 0.389073
v -0.153355 0.351232 0.278029
v -0.136853 0.225266 0.207480
v -0.135855 0.117585 0.178786
v -0.183126 0.117585 0.170450
v -0.192002 0.225266 0.197755
v -0.200625 0.351232 0.269694
v -0.212572 0.454657 0.383516
v -0.456603 0.800000 -0.055551
v -0.322746 -0.000000 -0.255398
v -0.350459 -0.000000 -0.271398
v -0.381434 0.560000 -0.153747
v -0.345710 0.400000 -0.199623
v -0.323091 0.240000 -0.230800
v -0.318499 0.120000 -0.246754
v -0.360068 0.120000 -0.270754
v -0.371588 0.240000 -0.258800
v -0.387279 0.400000 -0.223623
v -0.409147 0.560000 -0.169747
v -0.128894 0.700000 -0.585374
v -0.213874 -0.000000 -0.392827
v -0.187562 -0.000000 -0.383250
v -0.178747 0.490000 -0.489337
v -0.202560 0.350000 -0.444377
v -0.217314 0.210000 -0.414075
v -0.218847 0.105000 -0.399630
v -0.179380 0.105000 -0.385265
v -0.171269 0.210000 -0.397316
v -0.163093 0.350000 -0.430013
v -0.152435 0.490000 -0.479761
v 0.065898 0.900000 -0.179910
v -0.196874 -0.000000 -0.244521
v -0.203126 -0.000000 -0.209068
v -0.066832 0.630000 -0.221591
v -0.129076 0.450000 -0.241706
v -0.170739 0.270000 -0.253621
v -0.189371 0.135000 -0.252337
v -0.198748 0.135000 -0.199158
v -0.181678 0.270000 -0.191578
v -0.138453 0.450000 -0.188526
v -0.073083 0.630000 -0.186138
v -0.745000 0.560000 -0.339378
v -0.265000 -0.000000 -0.323378
v -0.265000 -0.000000 -0.355378
v -0.487719 0.454657 -0.323378
v -0.373552 0.351232 -0.315378
v -0.301209 0.225266 -0.311378
v -0.272777 0.117585 -0.315378
v -0.272777 0.117585 -0.363378
v -0.301209 0.225266 -0.367378
v -0.373552 0.351232 -0.363378
v -0.487719 0.454657 -0.355378
v -0.247906 1.000000 -0.395442
v -0.319696 -0.000000 -0.103473
v -0.280304 -0.000000 -0.096527
v -0.294218 0.700000 -0.247964
v -0.316567 0.500000 -0.178805
v -0.329807 0.300000 -0.132513
v -0.328380 0.150000 -0.111810
v -0.269292 0.150000 -0.101391
v -0.260871 0.300000 -0.120357
v -0.257479 0.500000 -0.168386
v -0.254826 0.700000 -0.241018
v -0.641372 0.800000 0.063201
v -0.410373 -0.000000 -0.003849
v -0.421318 -0.000000 -0.033919
v -0.520671 0.560000 0.036296
v -0.463816 0.400000 0.024116
v -0.426448 0.240000 0.014772
v -0.412676 0.120000 0.005502
v -0.429093 0.120000 -0.039603
v -0.445601 0.240000 -0.037851
v -0.480233 0.400000 -0.020989
v -0.531616 0.560000 0.006226
v -0.049769 0.700000 -0.132020
v -0.238634 -0.000000 -0.039144
v -0.224634 -0.000000 -0.014895
v -0.149690 0.490000 -0.090496
v -0.196831 0.350000 -0.071362
v -0.227612 0.210000 -0.057632
v -0.238071 0.105000 -0.047552
v -0.217071 0.105000 -0.011179
v -0.203112 0.210000 -0.015197
v -0.175831 0.350000 -0.034989
v -0.135690 0.490000 -0.066247
v -0.679857 0.560000 -0.339602
v -0.322440 -0.000000 -0.018807
v -0.301871 -0.000000 -0.043320
v -0.493053 0.454657 -0.161968
v -0.410738 0.351232 -0.082454
v -0.357891 0.225266 -0.032889
v -0.333540 0.117585 -0.017678
v -0.302686 0.117585 -0.054448
v -0.321895 0.225266 -0.075787
v -0.379884 0.351232 -0.119225
v -0.472484 0.454657 -0.186481
v 0.030556 0.560000 0.277302
v -0.377136 0.000000 0.023446
v -0.393136 0.000000 0.051159
v -0.184255 0.454657 0.134806
v -0.279127 0.351232 0.070794
v -0.339778 0.225266 0.031158
v -0.366400 0.117585 0.020406
v -0.390400 0.117585 0.061976
v -0.367778 0.225266 0.079655
v -0.303127 0.351232 0.112363
v -0.200255 0.454657 0.162518
v -0.199384 0.900000 -0.055403
v -0.442210 0.000000 0.064008
v -0.424210 0.000000 0.095185
v -0.327853 0.630000 -0.002016
v -0.388464 0.450000 0.022585
v -0.428039 0.270000 0.040238
v -0.441486 0.135000 0.053198
v -0.414486 0.135000 0.099963
v -0.396539 0.270000 0.094797
v -0.361464 0.450000 0.069351
v -0.309853 0.630000 0.029161
v -0.300000 1.000000 -0.100000
v -0.320000 0.000000 0.200000
v -0.280000 0.000000 0.200000
v -0.320000 0.700000 0.053280
v -0.330000 0.500000 0.125270
v -0.335000 0.300000 0.173157
v -0.330000 0.150000 0.193298
v -0.270000 0.150000 0.193298
v -0.265000 0.300000 0.173157
v -0.270000 0.500000 0.125270
v -0.280000 0.700000 0.053280
v -0.607846 0.800000 0.420000
v -0.392000 0.000000 0.313856
v -0.408000 0.000000 0.286144
v -0.493651 0.560000 0.372545
v -0.439775 0.400000 0.350677
v -0.404597 0.240000 0.334986
v -0.392644 0.120000 0.323466
v -0.416644 0.120000 0.281896
v -0.432597 0.240000 0.286488
v -0.463775 0.400000 0.309108
v -0.509651 0.560000 0.344832
v -0.093168 0.900000 0.573553
v -0.288430 0.000000 0.386211
v -0.311570 0.000000 0.413789
v -0.187275 0.630000 0.471090
v -0.231123 0.450000 0.422549
v -0.261246 0.270000 0.391398
v -0.278024 0.135000 0.383194
v -0.312734 0.135000 0.424561
v -0.301741 0.270000 0.439659
v -0.265833 0.450000 0.463915
v -0.210415 0.630000 0.498668
v -0.715692 0.560000 0.030000
v -0.308000 0.000000 0.283856
v -0.292000 0.000000 0.256144
v -0.500881 0.454657 0.172497
v -0.406009 0.351232 0.236508
v -0.345358 0.225266 0.276144
v -0.318735 0.117585 0.286896
v -0.294735 0.117585 0.245327
v -0.317358 0.225266 0.227647
v -0.382009 0.351232 0.194939
v -0.484881 0.454657 0.144784
v 0.091052 0.560000 0.514170
v -0.354528 0.000000 0.334965
v -0.365472 0.000000 0.365035
v -0.145240 0.454657 0.411139
v -0.249786 0.351232 0.364574
v -0.316398 0.225266 0.336073
v -0.344483 0.117585 0.330107
v -0.360900 0.117585 0.375213
v -0.335552 0.225266 0.388696
v -0.266203 0.351232 0.409680
v -0.156185 0.454657 0.441210
v -0.193168 0.900000 0.226447
v -0.411570 0.000000 0.386211
v -0.388430 0.000000 0.413789
v -0.310415 0.630000 0.301332
v -0.365833 0.450000 0.336085
v -0.401741 0.270000 0.360341
v -0.412734 0.135000 0.375439
v -0.378024 0.135000 0.416806
v -0.361246 0.270000 0.408602
v -0.331123 0.450000 0.377451
v -0.287275 0.630000 0.328910
v 0.098522 0.560000 -0.491053
v -0.080683 -0.000000 -0.045472
v -0.050613 -0.000000 -0.034528
v -0.004509 0.454657 -0.254760
v -0.051074 0.351232 -0.150214
v -0.079575 0.225266 -0.083602
v -0.085541 0.117585 -0.055517
v -0.040435 0.117585 -0.039100
v -0.026953 0.225266 -0.064448
v -0.005968 0.351232 -0.133797
v 0.025562 0.454657 -0.243815
v 0.295905 0.579306 0.039760
v -0.118669 -0.006280 0.211441
v -0.107834 -0.004269 0.241483
v 0.056874 0.459097 0.116969
v -0.045337 0.349219 0.152667
v -0.105305 0.219443 0.178724
v -0.122716 0.110819 0.196537
v -0.106463 0.113837 0.241602
v -0.086346 0.222963 0.231299
v -0.029085 0.352236 0.197732
v 0.067709 0.461109 0.147013
v -0.004268 0.579306 0.039760
v -0.418842 -0.006280 0.211441
v -0.408007 -0.004269 0.241483
v -0.243299 0.459097 0.116969
v -0.345510 0.349219 0.152667
v -0.405478 0.219443 0.178724
v -0.422888 0.110819 0.196537
v -0.406636 0.113837 0.241602
v -0.386519 0.222963 0.231299
v -0.329258 0.352236 0.197732
v -0.232464 0.461109 0.147013
v 0.669732 0.579306 0.410621
v 0.336843 -0.006280 0.109737
v 0.314351 -0.004269 0.132409
v 0.497471 0.459097 0.227801
v 0.421387 0.349219 0.150777
v 0.372130 0.219443 0.107779
v 0.348572 0.110819 0.099690
v 0.314832 0.113837 0.133699
v 0.332767 0.222963 0.147454
v 0.387647 0.352236 0.184785
v 0.474977 0.461109 0.250474
v 0.669732 0.579306 -0.116252
v 0.336843 -0.006280 -0.417135
v 0.314351 -0.004269 -0.394463
v 0.497471 0.459097 -0.299071
v 0.421387 0.349219 -0.376096
v 0.372130 0.219443 -0.419094
v 0.348572 0.110819 -0.427182
v 0.314832 0.113837 -0.393174
v 0.332767 0.222963 -0.379419
v 0.387647 0.352236 -0.342087
v 0.474977 0.461109 -0.276399
vn -0.4980 0.0904 -0.8625
vn -0.4995 0.0446 -0.8652
vn -0.4452 0.4550 -0.7712
vn -0.4592 0.3957 -0.7954
vn -0.4793 0.2850 -0.8301
vn -0.4915 0.1833 -0.8513
vn -0.6401 0.0904 0.7629
vn -0.6421 0.0446 0.7653
vn -0.5724 0.4550 0.6822
vn -0.5903 0.3957 0.7035
vn -0.6161 0.2850 0.7343
vn -0.6319 0.1833 0.7531
vn 0.4932 0.1646 -0.8542
vn 0.4989 0.0660 -0.8641
vn 0.1895 0.9254 -0.3282
vn 0.2692 0.8427 -0.4662
vn 0.3907 0.6241 -0.6767
vn 0.4624 0.3803 -0.8010
vn -0.3374 0.1646 0.9269
vn -0.3413 0.0660 0.9376
vn -0.1296 0.9254 0.3561
vn -0.1841 0.8427 0.5059
vn -0.2672 0.6241 0.7342
vn -0.3163 0.3803 0.8691
vn -0.2578 0.0904 0.9620
vn -0.2586 0.0446 0.9650
vn -0.2305 0.4550 0.8602
vn -0.2377 0.3957 0.8871
vn -0.2481 0.2850 0.9259
vn -0.2544 0.1833 0.9496
vn 0.9826 0.1646 -0.0860
vn 0.9940 0.0660 -0.0870
vn 0.3775 0.9254 -0.0330
vn 0.5363 0.8427 -0.0469
vn 0.7784 0.6241 -0.0681
vn 0.9214 0.3803 -0.0806
vn -0.9528 0.1646 0.2553
vn -0.9638 0.0660 0.2582
vn -0.3660 0.9254 0.0981
vn -0.5200 0.8427 0.1393
vn -0.7547 0.6241 0.2022
vn -0.8934 0.3803 0.2394
vn -0.0868 0.0904 -0.9921
vn -0.0871 0.0446 -0.9952
vn -0.0776 0.4550 -0.8871
vn -0.0800 0.3957 -0.9149
vn -0.0835 0.2850 -0.9549
vn -0.0857 0.1833 -0.9793
vn -0.9026 0.0904 0.4209
vn -0.9054 0.0446 0.4222
vn -0.8071 0.4550 0.3763
vn -0.8324 0.3957 0.3881
vn -0.8687 0.2850 0.4051
vn -0.8909 0.1833 0.4154
vn 0.8080 0.1646 -0.5658
vn 0.8174 0.0660 -0.5723
vn 0.3104 0.9254 -0.2173
vn 0.4410 0.8427 -0.3088
vn 0.6400 0.6241 -0.4482
vn 0.7576 0.3803 -0.5305
vn -0.6975 0.1646 0.6975
vn -0.7056 0.0660 0.7056
vn -0.2679 0.9254 0.2679
vn -0.3807 0.8427 0.3807
vn -0.5525 0.6241 0.5525
vn -0.6540 0.3803 0.6540
vn 0.2578 0.0904 0.9620
vn 0.2586 0.0446 0.9650
vn 0.2305 0.4550 0.8602
vn 0.2377 0.3957 0.8871
vn 0.2481 0.2850 0.9259
vn 0.2544 0.1833 0.9496
vn 0.4980 0.0904 0.8625
vn 0.4995 0.0446 0.8652
vn 0.4452 0.4550 0.7712
vn 0.4592 0.3957 0.7954
vn 0.4793 0.2850 0.8301
vn 0.4915 0.1833 0.8513
vn 0.4980 0.0904 -0.8625
vn 0.4995 0.0446 -0.8652
vn 0.4452 0.4550 -0.7712
vn 0.4592 0.3957 -0.7954
vn 0.4793 0.2850 -0.8301
vn 0.4915 0.1833 -0.8513
vn -0.3406 0.0904 0.9358
vn -0.3417 0.0446 0.9388
vn -0.3045 0.4550 0.8368
vn -0.3141 0.3957 0.8630
vn -0.3278 0.2850 0.9007
vn -0.3362 0.1833 0.9238
vn -0.9808 0.0904 -0.1729
vn -0.9838 0.0446 -0.1735
vn -0.8770 0.4550 -0.1546
vn -0.9044 0.3957 -0.1595
vn -0.9440 0.2850 -0.1664
vn -0.9681 0.1833 -0.1707
vn 0.9864 0.1646 -0.0000
vn 0.9978 0.0660 -0.0000
vn 0.3789 0.9254 -0.0000
vn 0.5383 0.8427 -0.0000
vn 0.7813 0.6241 -0.0000
vn 0.9249 0.3803 -0.0000
vn -0.9714 0.1646 0.1713
vn -0.9827 0.0660 0.1733
vn -0.3732 0.9254 0.0658
vn -0.5302 0.8427 0.0935
vn -0.7695 0.6241 0.1357
vn -0.9108 0.3803 0.1606
vn -0.3046 0.4550 0.8368
vn -0.0000 0.0904 0.9959
vn -0.0000 0.0446 0.9990
vn -0.0000 0.4550 0.8905
vn -0.0000 0.3957 0.9184
vn -0.0000 0.2850 0.9585
vn -0.0000 0.1833 0.9830
vn 0.8625 0.0904 -0.4980
vn 0.8652 0.0446 -0.4995
vn 0.7712 0.4550 -0.4452
vn 0.7954 0.3957 -0.4592
vn 0.8301 0.2850 -0.4793
vn 0.8513 0.1833 -0.4915
vn -0.7629 0.0904 0.6402
vn -0.7653 0.0446 0.6421
vn -0.6822 0.4550 0.5724
vn -0.7035 0.3957 0.5903
vn -0.7343 0.2850 0.6161
vn -0.7531 0.1833 0.6319
vn 0.8542 0.1646 0.4932
vn 0.8641 0.0660 0.4989
vn 0.3282 0.9254 0.1895
vn 0.4662 0.8427 0.2692
vn 0.6767 0.6241 0.3907
vn 0.8010 0.3803 0.4624
vn -0.9269 0.1646 -0.3374
vn -0.9376 0.0660 -0.3413
vn -0.3561 0.9254 -0.1296
vn -0.5059 0.8427 -0.1841
vn -0.7342 0.6241 -0.2672
vn -0.8691 0.3803 -0.3163
vn -0.9808 0.0904 0.1729
vn -0.9838 0.0446 0.1735
vn -0.8770 0.4550 0.1546
vn -0.9044 0.3956 0.1595
vn -0.9440 0.2850 0.1665
vn -0.9681 0.1833 0.1707
vn 0.6402 0.0904 0.7629
vn 0.6421 0.0446 0.7653
vn 0.5724 0.4550 0.6822
vn 0.5903 0.3957 0.7035
vn 0.6161 0.2850 0.7343
vn 0.6319 0.1833 0.7531
vn -0.7629 0.0904 -0.6402
vn -0.7653 0.0446 -0.6421
vn -0.6822 0.4550 -0.5724
vn -0.7035 0.3956 -0.5903
vn -0.7343 0.2850 -0.6161
vn -0.7531 0.1833 -0.6319
vn 0.1713 0.1646 -0.9714
vn 0.1733 0.0660 -0.9827
vn 0.0658 0.9254 -0.3732
vn 0.0935 0.8427 -0.5302
vn 0.1357 0.6241 -0.7695
vn 0.1606 0.3803 -0.9108
vn -0.1729 0.0904 0.9808
vn -0.1735 0.0446 0.9838
vn -0.1546 0.4550 0.8770
vn -0.1595 0.3957 0.9044
vn -0.1665 0.2850 0.9440
vn -0.1707 0.1833 0.9681
vn 0.9358 0.0904 -0.3406
vn 0.9388 0.0446 -0.3417
vn 0.8368 0.4550 -0.3046
vn 0.8630 0.3957 -0.3141
vn 0.9007 0.2850 -0.3278
vn 0.9238 0.1833 -0.3362
vn -0.8625 0.0904 0.4980
vn -0.8652 0.0446 0.4995
vn -0.7712 0.4550 0.4452
vn -0.7954 0.3957 0.4592
vn -0.8301 0.2850 0.4793
vn -0.8513 0.1833 0.4915
vn 0.7556 0.1646 0.6340
vn 0.7644 0.0660 0.6414
vn 0.2903 0.9254 0.2436
vn 0.4124 0.8427 0.3460
vn 0.5985 0.6241 0.5022
vn 0.7085 0.3803 0.5945
vn -0.8542 0.1646 -0.4932
vn -0.8641 0.0660 -0.4989
vn -0.3281 0.9254 -0.1895
vn -0.4662 0.8427 -0.2692
vn -0.6767 0.6241 -0.3907
vn -0.8010 0.3803 -0.4624
vn -0.7629 0.0904 -0.6401
vn -0.7035 0.3957 -0.5903
vn -0.7629 0.0904 0.6401
vn -0.9374 0.1094 0.3307
vn -0.9409 0.0106 0.3386
vn -0.4234 0.9012 0.0923
vn -0.5669 0.8100 0.1502
vn -0.7788 0.5787 0.2421
vn -0.8955 0.3278 0.3010
vn -0.7008 0.1094 -0.7049
vn -0.7094 0.0106 -0.7047
vn -0.2650 0.9012 -0.3429
vn -0.3788 0.8100 -0.4477
vn -0.5527 0.5787 -0.5997
vn -0.6560 0.3278 -0.6799
vt 0.885656 0.000000
vt 1.000000 0.000000
vt 1.000000 1.000000
vt 0.800000 1.000000
vt 0.000000 0.000000
vt 0.305072 0.000000
vt 0.303528 1.000000
vt 0.472584 0.000000
vt 0.468577 1.000000
vt 0.646212 0.000000
vt 0.650940 1.000000
s 1
f 7/1/1 2/2/2 3/3/2 8/4/1
f 1/5/3 4/6/4 11/7/4
f 4/6/4 5/8/5 10/9/5 11/7/4
f 5/8/5 6/10/6 9/11/6 10/9/5
f 6/10/6 7/1/1 8/4/1 9/11/6
f 18/1/7 13/2/8 14/3/8 19/4/7
f 12/5/9 15/6/10 22/7/10
f 15/6/10 16/8/11 21/9/11 22/7/10
f 16/8/11 17/10/12 20/11/12 21/9/11
f 17/10/12 18/1/7 19/4/7 20/11/12
f 29/1/13 24/2/14 25/3/14 30/4/13
f 23/5/15 26/6/16 33/7/16
f 26/6/16 27/8/17 32/9/17 33/7/16
f 27/8/17 28/10/18 31/11/18 32/9/17
f 28/10/18 29/1/13 30/4/13 31/11/18
f 40/1/19 35/2/20 36/3/20 41/4/19
f 34/5/21 37/6/22 44/7/22
f 37/6/22 38/8/23 43/9/23 44/7/22
f 38/8/23 39/10/24 42/11/24 43/9/23
f 39/10/24 40/1/19 41/4/19 42/11/24
f 51/1/25 46/2/26 47/3/26 52/4/25
f 45/5/27 48/6/28 55/7/28
f 48/6/28 49/8/29 54/9/29 55/7/28
f 49/8/29 50/10/30 53/11/30 54/9/29
f 50/10/30 51/1/25 52/4/25 53/11/30
f 62/1/31 57/2/32 58/3/32 63/4/31
f 56/5/33 59/6/34 66/7/34
f 59/6/34 60/8/35 65/9/35 66/7/34
f 60/8/35 61/10/36 64/11/36 65/9/35
f 61/10/36 62/1/31 63/4/31 64/11/36
f 73/1/37 68/2/38 69/3/38 74/4/37
f 67/5/39 70/6/40 77/7/40
f 70/6/40 71/8/41 76/9/41 77/7/40
f 71/8/41 72/10/42 75/11/42 76/9/41
f 72/10/42 73/1/37 74/4/37 75/11/42
f 84/1/25 79/2/26 80/3/26 85/4/25
f 78/5/27 81/6/28 88/7/28
f 81/6/28 82/8/29 87/9/29 88/7/28
f 82/8/29 83/10/30 86/11/30 87/9/29
f 83/10/30 84/1/25 85/4/25 86/11/30
f 95/1/43 90/2/44 91/3/44 96/4/43
f 89/5/45 92/6/46 99/7/46
f 92/6/46 93/8/47 98/9/47 99/7/46
f 93/8/47 94/10/48 97/11/48 98/9/47
f 94/10/48 95/1/43 96/4/43 97/11/48
f 106/1/49 101/2/50 102/3/50 107/4/49
f 100/5/51 103/6/52 110/7/52
f 103/6/52 104/8/53 109/9/53 110/7/52
f 104/8/53 105/10/54 108/11/54 109/9/53
f 105/10/54 106/1/49 107/4/49 108/11/54
f 117/1/55 112/2/56 113/3/56 118/4/55
f 111/5/57 114/6/58 121/7/58
f 114/6/58 115/8/59 120/9/59 121/7/58
f 115/8/59 116/10/60 119/11/60 120/9/59
f 116/10/60 117/1/55 118/4/55 119/11/60
f 128/1/61 123/2/62 124/3/62 129/4/61
f 122/5/63 125/6/64 132/7/64
f 125/6/64 126/8/65 131/9/65 132/7/64
f 126/8/65 127/10/66 130/11/66 131/9/65
f 127/10/66 128/1/61 129/4/61 130/11/66
f 139/1/67 134/2/68 135/3/68 140/4/67
f 133/5/69 136/6/70 143/7/70
f 136/6/70 137/8/71 142/9/71 143/7/70
f 137/8/71 138/10/72 141/11/72 142/9/71
f 138/10/72 139/1/67 140/4/67 141/11/72
f 150/1/73 145/2/74 146/3/74 151/4/73
f 144/5/75 147/6/76 154/7/76
f 147/6/76 148/8/77 153/9/77 154/7/76
f 148/8/77 149/10/78 152/11/78 153/9/77
f 149/10/78 150/1/73 151/4/73 152/11/78
f 161/1/79 156/2/80 157/3/80 162/4/79
f 155/5/81 158/6/82 165/7/82
f 158/6/82 159/8/83 164/9/83 165/7/82
f 159/8/83 160/10/84 163/11/84 164/9/83
f 160/10/84 161/1/79 162/4/79 163/11/84
f 172/1/85 167/2/86 168/3/86 173/4/85
f 166/5/87 169/6/88 176/7/88
f 169/6/88 170/8/89 175/9/89 176/7/88
f 170/8/89 171/10/90 174/11/90 175/9/89
f 171/10/90 172/1/85 173/4/85 174/11/90
f 183/1/91 178/2/92 179/3/92 184/4/91
f 177/5/93 180/6/94 187/7/94
f 180/6/94 181/8/95 186/9/95 187/7/94
f 181/8/95 182/10/96 185/11/96 186/9/95
f 182/10/96 183/1/91 184/4/91 185/11/96
f 194/1/97 189/2/98 190/3/98 195/4/97
f 188/5/99 191/6/100 198/7/100
f 191/6/100 192/8/101 197/9/101 198/7/100
f 192/8/101 193/10/102 196/11/102 197/9/101
f 193/10/102 194/1/97 195/4/97 196/11/102
f 205/1/103 200/2/104 201/3/104 206/4/103
f 199/5/105 202/6/106 209/7/106
f 202/6/106 203/8/107 208/9/107 209/7/106
f 203/8/107 204/10/108 207/11/108 208/9/107
f 204/10/108 205/1/103 206/4/103 207/11/108
f 216/1/85 211/2/86 212/3/86 217/4/85
f 210/5/109 213/6/88 220/7/88
f 213/6/88 214/8/89 219/9/89 220/7/88
f 214/8/89 215/10/90 218/11/90 219/9/89
f 215/10/90 216/1/85 217/4/85 218/11/90
f 227/1/110 222/2/111 223/3/111 228/4/110
f 221/5/112 224/6/113 231/7/113
f 224/6/113 225/8/114 230/9/114 231/7/113
f 225/8/114 226/10/115 229/11/115 230/9/114
f 226/10/115 227/1/110 228/4/110 229/11/115
f 238/1/116 233/2/117 234/3/117 239/4/116
f 232/5/118 235/6/119 242/7/119
f 235/6/119 236/8/120 241/9/120 242/7/119
f 236/8/120 237/10/121 240/11/121 241/9/120
f 237/10/121 238/1/116 239/4/116 240/11/121
f 249/1/122 244/2/123 245/3/123 250/4/122
f 243/5/124 246/6/125 253/7/125
f 246/6/125 247/8/126 252/9/126 253/7/125
f 247/8/126 248/10/127 251/11/127 252/9/126
f 248/10/127 249/1/122 250/4/122 251/11/127
f 260/1/128 255/2/129 256/3/129 261/4/128
f 254/5/130 257/6/131 264/7/131
f 257/6/131 258/8/132 263/9/132 264/7/131
f 258/8/132 259/10/133 262/11/133 263/9/132
f 259/10/133 260/1/128 261/4/128 262/11/133
f 271/1/134 266/2/135 267/3/135 272/4/134
f 265/5/136 268/6/137 275/7/137
f 268/6/137 269/8/138 274/9/138 275/7/137
f 269/8/138 270/10/139 273/11/139 274/9/138
f 270/10/139 271/1/134 272/4/134 273/11/139
f 282/1/140 277/2/141 278/3/141 283/4/140
f 276/5/142 279/6/143 286/7/143
f 279/6/143 280/8/144 285/9/144 286/7/143
f 280/8/144 281/10/145 284/11/145 285/9/144
f 281/10/145 282/1/140 283/4/140 284/11/145
f 293/1/146 288/2/147 289/3/147 294/4/146
f 287/5/148 290/6/149 297/7/149
f 290/6/149 291/8/150 296/9/150 297/7/149
f 291/8/150 292/10/151 295/11/151 296/9/150
f 292/10/151 293/1/146 294/4/146 295/11/151
f 304/1/152 299/2/153 300/3/153 305/4/152
f 298/5/154 301/6/155 308/7/155
f 301/6/155 302/8/156 307/9/156 308/7/155
f 302/8/156 303/10/157 306/11/157 307/9/156
f 303/10/157 304/1/152 305/4/152 306/11/157
f 315/1/158 310/2/159 311/3/159 316/4/158
f 309/5/160 312/6/161 319/7/161
f 312/6/161 313/8/162 318/9/162 319/7/161
f 313/8/162 314/10/163 317/11/163 318/9/162
f 314/10/163 315/1/158 316/4/158 317/11/163
f 326/1/79 321/2/80 322/3/80 327/4/79
f 320/5/81 323/6/82 330/7/82
f 323/6/82 324/8/83 329/9/83 330/7/82
f 324/8/83 325/10/84 328/11/84 329/9/83
f 325/10/84 326/1/79 327/4/79 328/11/84
f 337/1/85 332/2/86 333/3/86 338/4/85
f 331/5/87 334/6/88 341/7/88
f 334/6/88 335/8/89 340/9/89 341/7/88
f 335/8/89 336/10/90 339/11/90 340/9/89
f 336/10/90 337/1/85 338/4/85 339/11/90
f 348/1/91 343/2/92 344/3/92 349/4/91
f 342/5/93 345/6/94 352/7/94
f 345/6/94 346/8/95 351/9/95 352/7/94
f 346/8/95 347/10/96 350/11/96 351/9/95
f 347/10/96 348/1/91 349/4/91 350/11/96
f 359/1/97 354/2/98 355/3/98 360/4/97
f 353/5/99 356/6/100 363/7/100
f 356/6/100 357/8/101 362/9/101 363/7/100
f 357/8/101 358/10/102 361/11/102 362/9/101
f 358/10/102 359/1/97 360/4/97 361/11/102
f 370/1/164 365/2/165 366/3/165 371/4/164
f 364/5/166 367/6/167 374/7/167
f 367/6/167 368/8/168 373/9/168 374/7/167
f 368/8/168 369/10/169 372/11/169 373/9/168
f 369/10/169 370/1/164 371/4/164 372/11/169
f 381/1/170 376/2/171 377/3/171 382/4/170
f 375/5/172 378/6/173 385/7/173
f 378/6/173 379/8/174 384/9/174 385/7/173
f 379/8/174 380/10/175 383/11/175 384/9/174
f 380/10/175 381/1/170 382/4/170 383/11/175
f 392/1/176 387/2/177 388/3/177 393/4/176
f 386/5/178 389/6/179 396/7/179
f 389/6/179 390/8/180 395/9/180 396/7/179
f 390/8/180 391/10/181 394/11/181 395/9/180
f 391/10/181 392/1/176 393/4/176 394/11/181
f 403/1/182 398/2/183 399/3/183 404/4/182
f 397/5/184 400/6/185 407/7/185
f 400/6/185 401/8/186 406/9/186 407/7/185
f 401/8/186 402/10/187 405/11/187 406/9/186
f 402/10/187 403/1/182 404/4/182 405/11/187
f 414/1/188 409/2/189 410/3/189 415/4/188
f 408/5/190 411/6/191 418/7/191
f 411/6/191 412/8/192 417/9/192 418/7/191
f 412/8/192 413/10/193 416/11/193 417/9/192
f 413/10/193 414/1/188 415/4/188 416/11/193
f 425/1/176 420/2/177 421/3/177 426/4/176
f 419/5/178 422/6/179 429/7/179
f 422/6/179 423/8/180 428/9/180 429/7/179
f 423/8/180 424/10/181 427/11/181 428/9/180
f 424/10/181 425/1/176 426/4/176 427/11/181
f 436/1/110 431/2/111 432/3/111 437/4/110
f 430/5/112 433/6/113 440/7/113
f 433/6/113 434/8/114 439/9/114 440/7/113
f 434/8/114 435/10/115 438/11/115 439/9/114
f 435/10/115 436/1/110 437/4/110 438/11/115
f 447/1/116 442/2/117 443/3/117 448/4/116
f 441/5/118 444/6/119 451/7/119
f 444/6/119 445/8/120 450/9/120 451/7/119
f 445/8/120 446/10/121 449/11/121 450/9/120
f 446/10/121 447/1/116 448/4/116 449/11/121
f 458/1/194 453/2/153 454/3/153 459/4/194
f 452/5/154 455/6/195 462/7/195
f 455/6/195 456/8/156 461/9/156 462/7/195
f 456/8/156 457/10/157 460/11/157 461/9/156
f 457/10/157 458/1/194 459/4/194 460/11/157
f 469/1/128 464/2/129 465/3/129 470/4/128
f 463/5/130 466/6/131 473/7/131
f 466/6/131 467/8/132 472/9/132 473/7/131
f 467/8/132 468/10/133 471/11/133 472/9/132
f 468/10/133 469/1/128 470/4/128 471/11/133
f 480/1/134 475/2/135 476/3/135 481/4/134
f 474/5/136 477/6/137 484/7/137
f 477/6/137 478/8/138 483/9/138 484/7/137
f 478/8/138 479/10/139 482/11/139 483/9/138
f 479/10/139 480/1/134 481/4/134 482/11/139
f 491/1/196 486/2/123 487/3/123 492/4/196
f 485/5/124 488/6/125 495/7/125
f 488/6/125 489/8/126 494/9/126 495/7/125
f 489/8/126 490/10/127 493/11/127 494/9/126
f 490/10/127 491/1/196 492/4/196 493/11/127
f 502/1/19 497/2/20 498/3/20 503/4/19
f 496/5/21 499/6/22 506/7/22
f 499/6/22 500/8/23 505/9/23 506/7/22
f 500/8/23 501/10/24 504/11/24 505/9/23
f 501/10/24 502/1/19 503/4/19 504/11/24
f 513/1/197 508/2/198 509/3/198 514/4/197
f 507/5/199 510/6/200 517/7/200
f 510/6/200 511/8/201 516/9/201 517/7/200
f 511/8/201 512/10/202 515/11/202 516/9/201
f 512/10/202 513/1/197 514/4/197 515/11/202
f 524/1/197 519/2/198 520/3/198 525/4/197
f 518/5/199 521/6/200 528/7/200
f 521/6/200 522/8/201 527/9/201 528/7/200
f 522/8/201 523/10/202 526/11/202 527/9/201
f 523/10/202 524/1/197 525/4/197 526/11/202
f 535/1/203 530/2/204 531/3/204 536/4/203
f 529/5/205 532/6/206 539/7/206
f 532/6/206 533/8/207 538/9/207 539/7/206
f 533/8/207 534/10/208 537/11/208 538/9/207
f 534/10/208 535/1/203 536/4/203 537/11/208
f 546/1/203 541/2/204 542/3/204 547/4/203
f 540/5/205 543/6/206 550/7/206
f 543/6/206 544/8/207 549/9/207 550/7/206
f 544/8/207 545/10/208 548/11/208 549/9/207
f 545/10/208 546/1/203 547/4/203 548/11/208
